<svg width="32" height="32" viewBox="0 0 32 32" fill="none" xmlns="http://www.w3.org/2000/svg">
<path d="M22.9487 28.8447C22.8792 29.016 22.7988 29.1162 22.7368 29.165C22.6136 29.262 22.2809 29.3789 21.6606 29.1924C22.106 29.1175 22.5367 29.0007 22.9487 28.8447ZM14.146 0.886719C14.4441 0.886719 15.0583 1.14753 15.6636 2.46191L18.1851 7.90918C18.4527 8.49673 18.9009 9.00038 19.3647 9.37012C19.8302 9.7411 20.41 10.0554 21.0083 10.1631L25.5796 10.9834C26.8519 11.2124 27.2737 11.7538 27.3726 12.0859C27.4716 12.4188 27.4208 13.126 26.5024 14.1113L26.4995 14.1143L24.2114 16.584C23.1418 15.9015 21.8721 15.5039 20.5093 15.5039C16.7025 15.5042 13.6167 18.5906 13.6167 22.3975C13.6167 23.4384 13.849 24.4247 14.2622 25.3096C14.2257 25.3086 14.189 25.3066 14.1528 25.3066C13.4967 25.3067 12.7818 25.4619 12.1851 25.8369L7.89111 28.582C6.44201 29.5109 5.75767 29.3111 5.56494 29.1592C5.36675 29.0028 4.98325 28.3491 5.36279 26.5771L6.38037 21.8242L6.38232 21.8164C6.52338 21.1366 6.46058 20.3994 6.29053 19.7578C6.12067 19.117 5.81225 18.4512 5.35107 17.9531L1.79639 14.1143C0.883819 13.1286 0.829995 12.4196 0.929199 12.084C1.02712 11.7528 1.44499 11.2123 2.71631 10.9834L7.2876 10.1631L7.2915 10.1621C7.88372 10.0535 8.45867 9.7389 8.92041 9.36914C9.3812 9.00013 9.82867 8.49649 10.0962 7.90918L12.6157 2.46582L12.731 2.23145C13.3044 1.11895 13.8648 0.886766 14.146 0.886719Z" fill="#079455" fill-opacity="0.4"/>
<path d="M22.9487 28.8447L23.6761 29.1399C23.7935 28.8507 23.7284 28.5195 23.5103 28.2963C23.2923 28.073 22.9627 28.0001 22.6709 28.1106L22.9487 28.8447ZM22.7368 29.165L23.2224 29.7818L23.2227 29.7816L22.7368 29.165ZM21.6606 29.1924L21.5305 28.4182C21.1707 28.4787 20.9001 28.7791 20.8772 29.1432C20.8543 29.5073 21.0853 29.8391 21.4347 29.9442L21.6606 29.1924ZM14.146 0.886719V0.101719H14.1459L14.146 0.886719ZM15.6636 2.46191L14.9505 2.79027L14.9512 2.79167L15.6636 2.46191ZM18.1851 7.90918L18.8995 7.58378L18.8974 7.57943L18.1851 7.90918ZM19.3647 9.37012L18.8755 9.98398L18.8755 9.98401L19.3647 9.37012ZM21.0083 10.1631L20.8692 10.9357L20.8696 10.9357L21.0083 10.1631ZM25.5796 10.9834L25.7187 10.2108L25.7182 10.2107L25.5796 10.9834ZM27.3726 12.0859L28.1249 11.862L28.1249 11.862L27.3726 12.0859ZM26.5024 14.1113L27.0575 14.6664C27.064 14.6599 27.0704 14.6533 27.0767 14.6466L26.5024 14.1113ZM26.4995 14.1143L25.9444 13.5592C25.9374 13.5662 25.9304 13.5734 25.9237 13.5808L26.4995 14.1143ZM24.2114 16.584L23.7892 17.2457C24.1091 17.4499 24.5293 17.3959 24.7873 17.1175L24.2114 16.584ZM20.5093 15.5039V14.7189H20.5092L20.5093 15.5039ZM13.6167 22.3975H12.8317V22.3975L13.6167 22.3975ZM14.2622 25.3096L14.2417 26.0943C14.5136 26.1014 14.7698 25.9673 14.9188 25.7398C15.0679 25.5123 15.0886 25.2239 14.9735 24.9774L14.2622 25.3096ZM14.1528 25.3066V24.5216H14.1528L14.1528 25.3066ZM12.1851 25.8369L11.7674 25.1722L11.7622 25.1755L12.1851 25.8369ZM7.89111 28.582L7.46828 27.9206L7.4675 27.9211L7.89111 28.582ZM5.56494 29.1592L5.07875 29.7755L5.07905 29.7757L5.56494 29.1592ZM5.36279 26.5771L6.13038 26.7416L6.1304 26.7415L5.36279 26.5771ZM6.38037 21.8242L5.61881 21.6338C5.61665 21.6425 5.61463 21.6512 5.61277 21.6599L6.38037 21.8242ZM6.38232 21.8164L7.14389 22.0068C7.14645 21.9965 7.14881 21.9862 7.15095 21.9759L6.38232 21.8164ZM6.29053 19.7578L7.04933 19.5567L7.04932 19.5567L6.29053 19.7578ZM5.35107 17.9531L5.92709 17.4198L5.92706 17.4198L5.35107 17.9531ZM1.79639 14.1143L1.22037 14.6476L1.2204 14.6476L1.79639 14.1143ZM0.929199 12.084L0.176411 11.8614L0.176397 11.8615L0.929199 12.084ZM2.71631 10.9834L2.57766 10.2107L2.57723 10.2108L2.71631 10.9834ZM7.2876 10.1631L7.42625 10.9357C7.44362 10.9326 7.46087 10.9289 7.47799 10.9246L7.2876 10.1631ZM7.2915 10.1621L7.14989 9.38999C7.13352 9.39299 7.11726 9.39651 7.10111 9.40055L7.2915 10.1621ZM8.92041 9.36914L9.41109 9.98188L9.41111 9.98187L8.92041 9.36914ZM10.0962 7.90918L9.38379 7.57943L9.38181 7.58378L10.0962 7.90918ZM12.6157 2.46582L11.9113 2.11946C11.9086 2.12497 11.9059 2.13051 11.9033 2.13608L12.6157 2.46582ZM12.731 2.23145L12.0332 1.8718C12.0309 1.87621 12.0287 1.88064 12.0265 1.88509L12.731 2.23145ZM22.9487 28.8447L22.2213 28.5496C22.206 28.5874 22.1952 28.603 22.1954 28.6027C22.1956 28.6024 22.1992 28.5972 22.2074 28.5883C22.2152 28.5797 22.2293 28.5655 22.2509 28.5485L22.7368 29.165L23.2227 29.7816C23.4208 29.6254 23.5714 29.3979 23.6761 29.1399L22.9487 28.8447ZM22.7368 29.165L22.2512 28.5483C22.3293 28.4868 22.365 28.498 22.3052 28.5041C22.251 28.5096 22.1178 28.5101 21.8866 28.4406L21.6606 29.1924L21.4347 29.9442C22.1955 30.1729 22.8256 30.0943 23.2224 29.7818L22.7368 29.165ZM21.6606 29.1924L21.7908 29.9665C22.2863 29.8832 22.7665 29.753 23.2266 29.5789L22.9487 28.8447L22.6709 28.1106C22.3069 28.2483 21.9257 28.3518 21.5305 28.4182L21.6606 29.1924ZM14.146 0.886719V1.67172C13.9819 1.67172 14.3921 1.57756 14.9505 2.79027L15.6636 2.46191L16.3766 2.13356C15.7245 0.717489 14.9063 0.101719 14.146 0.101719V0.886719ZM15.6636 2.46191L14.9512 2.79167L17.4727 8.23893L18.1851 7.90918L18.8974 7.57943L16.376 2.13216L15.6636 2.46191ZM18.1851 7.90918L17.4707 8.23457C17.8018 8.96163 18.3411 9.55803 18.8755 9.98398L19.3647 9.37012L19.854 8.75626C19.4607 8.44274 19.1035 8.03184 18.8994 7.58378L18.1851 7.90918ZM19.3647 9.37012L18.8755 9.98401C19.4097 10.4097 20.1068 10.7984 20.8692 10.9357L21.0083 10.1631L21.1474 9.3905C20.7132 9.31234 20.2508 9.07249 19.854 8.75622L19.3647 9.37012ZM21.0083 10.1631L20.8696 10.9357L25.4409 11.7561L25.5796 10.9834L25.7182 10.2107L21.147 9.39043L21.0083 10.1631ZM25.5796 10.9834L25.4405 11.756C26.5397 11.9538 26.6354 12.3611 26.6202 12.3099L27.3726 12.0859L28.1249 11.862C27.9119 11.1465 27.1642 10.471 25.7187 10.2108L25.5796 10.9834ZM27.3726 12.0859L26.6202 12.3099C26.6101 12.2759 26.7409 12.7042 25.9282 13.5761L26.5024 14.1113L27.0767 14.6466C28.1008 13.5479 28.3332 12.5617 28.1249 11.862L27.3726 12.0859ZM26.5024 14.1113L25.9474 13.5562L25.9444 13.5592L26.4995 14.1143L27.0546 14.6693L27.0575 14.6664L26.5024 14.1113ZM26.4995 14.1143L25.9237 13.5808L23.6356 16.0505L24.2114 16.584L24.7873 17.1175L27.0754 14.6478L26.4995 14.1143ZM24.2114 16.584L24.6337 15.9222C23.4425 15.1622 22.0271 14.7189 20.5093 14.7189V15.5039V16.2889C21.7172 16.2889 22.8412 16.6408 23.7892 17.2457L24.2114 16.584ZM20.5093 15.5039L20.5092 14.7189C16.2688 14.7192 12.8317 18.1572 12.8317 22.3975H13.6167H14.4017C14.4017 19.0241 17.1361 16.2891 20.5093 16.2889L20.5093 15.5039ZM13.6167 22.3975L12.8317 22.3975C12.8317 23.5565 13.0906 24.6559 13.5509 25.6417L14.2622 25.3096L14.9735 24.9774C14.6075 24.1936 14.4017 23.3204 14.4017 22.3974L13.6167 22.3975ZM14.2622 25.3096L14.2827 24.5248C14.2778 24.5247 14.2004 24.5216 14.1528 24.5216V25.3066V26.0916C14.1776 26.0916 14.1737 26.0925 14.2417 26.0943L14.2622 25.3096ZM14.1528 25.3066L14.1528 24.5216C13.3837 24.5217 12.5158 24.702 11.7674 25.1722L12.1851 25.8369L12.6027 26.5016C13.0479 26.2219 13.6097 26.0917 14.1529 26.0916L14.1528 25.3066ZM12.1851 25.8369L11.7622 25.1755L7.46828 27.9206L7.89111 28.582L8.31394 29.2434L12.6079 26.4983L12.1851 25.8369ZM7.89111 28.582L7.4675 27.9211C6.09061 28.8037 5.82795 28.367 6.05084 28.5426L5.56494 29.1592L5.07905 29.7757C5.68739 30.2552 6.79341 30.218 8.31472 29.2429L7.89111 28.582ZM5.56494 29.1592L6.05113 28.5429C6.15095 28.6216 6.07168 28.6216 6.01967 28.3342C5.96992 28.0594 5.9549 27.5608 6.13038 26.7416L5.36279 26.5771L4.5952 26.4127C4.39114 27.3654 4.3781 28.0797 4.47477 28.6138C4.56916 29.1353 4.78074 29.5404 5.07875 29.7755L5.56494 29.1592ZM5.36279 26.5771L6.1304 26.7415L7.14798 21.9886L6.38037 21.8242L5.61277 21.6599L4.59519 26.4128L5.36279 26.5771ZM6.38037 21.8242L7.14193 22.0146L7.14389 22.0068L6.38232 21.8164L5.62076 21.626L5.61881 21.6338L6.38037 21.8242ZM6.38232 21.8164L7.15095 21.9759C7.32252 21.149 7.24243 20.2853 7.04933 19.5567L6.29053 19.7578L5.53173 19.9589C5.67872 20.5135 5.72424 21.1242 5.6137 21.6569L6.38232 21.8164ZM6.29053 19.7578L7.04932 19.5567C6.85704 18.8313 6.49944 18.038 5.92709 17.4198L5.35107 17.9531L4.77505 18.4864C5.12505 18.8645 5.3843 19.4028 5.53173 19.959L6.29053 19.7578ZM5.35107 17.9531L5.92706 17.4198L2.37238 13.5809L1.79639 14.1143L1.2204 14.6476L4.77509 18.4865L5.35107 17.9531ZM1.79639 14.1143L2.37241 13.5809C1.56423 12.7081 1.69083 12.2766 1.682 12.3065L0.929199 12.084L0.176397 11.8615C-0.0308365 12.5626 0.203408 13.5492 1.22037 14.6476L1.79639 14.1143ZM0.929199 12.084L1.68199 12.3065C1.66645 12.3591 1.75821 11.9535 2.85538 11.756L2.71631 10.9834L2.57723 10.2108C1.13177 10.471 0.387795 11.1465 0.176411 11.8614L0.929199 12.084ZM2.71631 10.9834L2.85496 11.7561L7.42625 10.9357L7.2876 10.1631L7.14894 9.39043L2.57766 10.2107L2.71631 10.9834ZM7.2876 10.1631L7.47799 10.9246L7.48189 10.9237L7.2915 10.1621L7.10111 9.40055L7.09721 9.40152L7.2876 10.1631ZM7.2915 10.1621L7.43312 10.9342C8.18982 10.7954 8.88179 10.4057 9.41109 9.98188L8.92041 9.36914L8.42973 8.7564C8.03554 9.07206 7.57762 9.31154 7.14989 9.38999L7.2915 10.1621ZM8.92041 9.36914L9.41111 9.98187C9.94181 9.55687 10.4798 8.96082 10.8106 8.23458L10.0962 7.90918L9.38181 7.58378C9.17757 8.03217 8.82058 8.44339 8.42971 8.75641L8.92041 9.36914ZM10.0962 7.90918L10.8086 8.23892L13.3281 2.79556L12.6157 2.46582L11.9033 2.13608L9.3838 7.57944L10.0962 7.90918ZM12.6157 2.46582L13.3202 2.81218L13.4354 2.5778L12.731 2.23145L12.0265 1.88509L11.9113 2.11946L12.6157 2.46582ZM12.731 2.23145L13.4287 2.59109C13.9455 1.58849 14.297 1.67169 14.1461 1.67172L14.146 0.886719L14.1459 0.101719C13.4326 0.101838 12.6632 0.649404 12.0332 1.8718L12.731 2.23145Z" fill="#079455"/>
<path d="M22.6069 18.6492C25.8225 18.6494 28.429 21.257 28.4292 24.4734C28.4292 27.6899 25.8227 30.2984 22.6069 30.2986C19.391 30.2986 16.7837 27.6901 16.7837 24.4734C16.7839 21.2569 19.3911 18.6492 22.6069 18.6492ZM22.6069 21.7644C22.3079 21.7644 22.0651 22.0073 22.0649 22.3064V23.9324H20.4399C20.1409 23.9324 19.8982 24.1744 19.8979 24.4734C19.8979 24.7726 20.1408 25.0154 20.4399 25.0154H22.0649V26.6414C22.0651 26.9404 22.3079 27.1824 22.6069 27.1824C22.9058 27.1821 23.1478 26.9403 23.1479 26.6414V25.0154H24.7729C25.0721 25.0154 25.3149 24.7726 25.3149 24.4734C25.3147 24.1744 25.072 23.9324 24.7729 23.9324H23.1479V22.3064C23.1478 22.0074 22.9058 21.7646 22.6069 21.7644Z" fill="#079455"/>
</svg>
